<svg version="1.1" id="Layer_1" xmlns="http://www.w3.org/2000/svg" xmlns:xlink="http://www.w3.org/1999/xlink" x="0px" y="0px"
	 width="100%" viewBox="0 0 1230 720" enable-background="new 0 0 1230 720" xml:space="preserve">
<path fill="#000000" opacity="1.000000" stroke="none" 
	d="
M901.000000,721.000000 
	C600.705078,721.000000 300.910156,721.000000 1.057609,721.000000 
	C1.057609,481.069153 1.057609,241.138306 1.057609,1.103721 
	C410.878326,1.103721 820.756653,1.103721 1230.817505,1.103721 
	C1230.817505,240.999878 1230.817505,480.999939 1230.817505,721.000000 
	C1121.138184,721.000000 1011.319092,721.000000 901.000000,721.000000 
M680.443542,213.045456 
	C680.263489,213.357590 680.083435,213.669724 679.989746,213.986649 
	C679.989746,213.986649 679.993958,213.900223 679.458801,214.064606 
	C679.276062,214.376343 679.093384,214.688080 679.007568,215.006073 
	C679.007568,215.006073 679.014221,214.909149 678.476807,215.079514 
	C678.281250,215.389603 678.085693,215.699707 677.981873,215.995026 
	C677.981873,215.995026 677.966431,215.903366 677.420654,216.018524 
	C677.239258,216.328125 677.057861,216.637726 676.946716,216.943436 
	C676.946716,216.943436 676.927856,216.875656 676.340881,217.117004 
	C676.213074,217.719543 676.085266,218.322098 675.318665,219.143875 
	C672.013550,222.114334 668.443970,224.842316 665.454590,228.102325 
	C657.569275,236.701462 649.959961,245.553070 642.191650,254.260315 
	C638.422119,258.485413 634.591980,262.658966 630.703735,266.774994 
	C619.313416,278.832672 607.869812,290.839905 596.467896,302.886566 
	C589.954346,309.768463 583.408752,316.622162 577.007690,323.607788 
	C568.002502,333.435242 559.174500,343.425110 550.158752,353.242706 
	C545.549927,358.261414 540.530334,362.906921 535.991699,367.985077 
	C528.011902,376.913635 520.415039,386.186523 512.370605,395.054779 
	C502.748840,405.662018 493.011383,416.178253 482.979218,426.395294 
	C473.551147,435.997101 463.699829,445.184906 453.977081,454.494690 
	C451.450043,456.914368 448.911926,459.412476 446.028442,461.354126 
	C434.378510,469.198944 422.653839,476.937164 410.840118,484.533325 
	C394.936127,494.759521 377.066223,499.895233 358.607361,501.728882 
	C339.460632,503.630920 320.316315,501.547211 301.892853,495.364136 
	C288.368225,490.825134 276.021637,484.085083 264.111328,476.116364 
	C252.845779,468.578979 243.280334,459.319794 235.003021,449.037811 
	C225.546432,437.290924 217.319168,424.460754 212.860611,409.659210 
	C211.238022,404.272522 208.848969,399.116760 206.931931,393.012909 
	C206.568359,389.486420 206.420151,385.920105 205.778107,382.445068 
	C205.186401,379.242554 204.064209,376.138062 203.022049,372.459869 
	C202.957870,372.287323 202.893677,372.114777 202.948517,371.019897 
	C202.995667,360.694519 203.042801,350.369141 203.820892,339.639404 
	C204.682388,325.417480 208.371216,311.823761 213.802048,298.778412 
	C220.877335,281.782837 231.015182,266.594757 244.109787,253.686249 
	C256.689575,241.285233 270.952789,231.214340 287.275604,223.893204 
	C306.401215,215.314957 326.339630,210.892929 347.094025,210.150818 
	C354.553558,209.884079 362.062836,211.583755 369.570831,211.979370 
	C385.564911,212.822205 400.706726,217.224640 414.666046,224.561539 
	C428.221069,231.685928 441.304169,239.896317 453.846191,248.696320 
	C462.795959,254.975845 470.931396,262.599121 478.661102,270.386230 
	C487.610046,279.401611 495.592194,289.368073 504.224365,298.708832 
	C512.298401,307.445618 520.612732,315.964020 528.963501,324.438385 
	C530.815796,326.318054 533.119141,328.725067 535.967712,325.507812 
	C540.645935,320.223969 545.158813,314.785431 549.995850,309.651886 
	C563.855164,294.943115 577.758240,280.273071 591.842224,265.780304 
	C595.093994,262.434082 594.405762,260.189301 591.254395,257.684326 
	C590.426086,257.025909 589.697144,256.236328 588.957764,255.472931 
	C582.025574,248.315323 575.117126,241.134659 568.169250,233.992325 
	C562.427246,228.089722 556.599243,222.270462 550.885254,216.341080 
	C543.288696,208.458115 536.120667,200.122269 528.115295,192.684021 
	C519.490540,184.670303 510.347656,177.159164 500.988678,170.007385 
	C492.986145,163.892105 484.526672,158.322922 475.956116,153.018204 
	C468.332153,148.299362 460.345795,144.145782 452.387878,139.994797 
	C448.003479,137.707825 443.509979,135.356979 438.785095,134.046341 
	C423.894501,129.915863 408.982056,125.728142 393.863281,122.600815 
	C382.412201,120.232147 370.666809,118.645973 358.991272,118.149452 
	C340.429962,117.360092 321.859711,118.245728 303.704712,122.958702 
	C291.840546,126.038582 279.696106,128.343597 268.206238,132.469101 
	C258.042145,136.118576 248.451385,141.511414 238.888535,146.656860 
	C221.382080,156.076492 205.347443,167.652100 191.057129,181.494568 
	C184.281723,188.057648 177.877747,195.017059 171.515564,201.988617 
	C168.094452,205.737381 164.789612,209.675537 162.004181,213.904907 
	C154.820953,224.811859 147.772491,235.818405 141.057281,247.017258 
	C138.489120,251.300095 136.974106,256.214417 134.193192,260.949280 
	C132.097061,266.643250 130.000931,272.337250 128.011642,277.966125 
	C128.011642,277.966125 127.946686,277.859222 127.271774,278.194458 
	C126.552864,280.818909 125.833954,283.443359 124.957253,286.372253 
	C124.957253,286.372253 125.031731,286.706970 124.336105,287.104126 
	C123.550835,289.141602 122.486931,291.118591 122.029526,293.227203 
	C120.241791,301.468506 118.945023,309.826355 116.899315,317.999084 
	C114.587387,327.235291 113.437851,336.496033 114.027519,346.913483 
	C114.020340,353.998932 113.944550,361.085419 114.050003,368.169220 
	C114.079590,370.156830 114.642227,372.136536 114.995155,375.013031 
	C115.065079,377.409302 115.135002,379.805542 114.818726,382.787231 
	C116.711975,393.229980 118.469009,403.700439 120.580940,414.098755 
	C121.220184,417.246124 122.842041,420.193909 123.977051,424.014526 
	C125.055771,427.423798 126.134499,430.833038 127.274849,434.684387 
	C127.489052,434.938263 127.758926,435.031921 127.996986,434.876617 
	C127.996986,434.876617 127.904984,434.960724 128.028137,435.687103 
	C128.331528,436.511047 128.634903,437.335022 129.000854,438.047485 
	C129.000854,438.047485 128.889175,437.985352 128.999374,438.785156 
	C130.016678,441.303802 131.033997,443.822479 131.957001,446.564087 
	C131.957001,446.564087 132.112854,446.749329 131.982864,447.534180 
	C132.998611,449.471863 134.014374,451.409576 134.935684,453.553711 
	C134.935684,453.553711 135.086517,453.723419 134.957642,454.486359 
	C135.956787,456.028320 136.955948,457.570312 137.984497,459.624146 
	C138.052246,459.781067 138.119995,459.937988 138.300690,460.708435 
	C139.144379,461.779175 139.988052,462.849884 140.984131,464.661652 
	C142.894684,468.220856 144.773376,471.797607 146.721161,475.336304 
	C156.468033,493.044189 169.442963,508.309753 183.418564,522.694702 
	C189.613541,529.071106 197.078079,534.192871 203.642426,540.235962 
	C218.364182,553.788818 236.002167,562.790833 253.580841,571.607910 
	C263.693756,576.680298 274.876373,579.875488 285.860718,582.880249 
	C295.972168,585.646362 306.423187,587.282410 316.806549,588.885315 
	C320.648315,589.478333 322.307159,590.476074 322.041229,594.590393 
	C321.731201,599.387146 322.070801,604.226013 322.004791,609.971008 
	C322.000092,615.783325 322.119965,621.599060 321.961121,627.407166 
	C321.731842,635.790649 321.197144,644.166565 321.037933,652.550415 
	C321.004181,654.327881 322.026398,656.125427 322.562073,657.913696 
	C323.739380,657.284729 324.916687,656.655762 326.021332,656.021240 
	C326.021332,656.021240 326.016907,656.094055 326.582062,655.971802 
	C326.774780,655.650513 326.967468,655.329285 327.793152,654.753601 
	C337.490173,648.369568 347.100922,641.849487 356.903870,635.632446 
	C372.897797,625.489136 389.240723,615.880798 405.020538,605.419495 
	C420.700714,595.024353 436.211121,584.305237 451.162567,572.897949 
	C465.850708,561.691589 479.861145,549.580811 493.932251,537.589111 
	C500.645691,531.867798 506.769196,525.458374 513.234619,519.440918 
	C521.118530,512.103271 529.286438,505.058655 536.956055,497.506012 
	C545.949341,488.649902 554.530884,479.376007 563.305298,470.297180 
	C574.176270,459.049072 585.132507,447.882446 595.925171,436.559906 
	C614.058594,417.536194 632.130005,398.453064 650.155457,379.327026 
	C664.698181,363.896210 679.094543,348.327423 693.628723,332.888550 
	C710.656372,314.801117 727.628906,296.658691 744.873657,278.779724 
	C761.637756,261.399017 779.118958,244.658676 800.262878,232.681320 
	C810.961365,226.620972 822.532898,221.858505 834.135315,217.695221 
	C850.720459,211.743942 868.071228,209.403061 885.736145,210.025955 
	C890.666382,210.199814 895.668640,210.241302 900.490845,211.136002 
	C908.420471,212.607224 916.306274,214.454544 924.071533,216.637711 
	C934.216614,219.489990 943.962952,223.525589 952.728149,229.429489 
	C962.247131,235.841019 972.081238,242.005096 980.643188,249.562622 
	C991.914307,259.511444 1002.008545,270.756348 1008.367920,284.769958 
	C1012.842224,294.629700 1017.619080,304.356476 1021.896973,314.299194 
	C1023.790710,318.700562 1024.784302,323.489258 1026.067993,328.983704 
	C1026.442017,343.615234 1026.816040,358.246735 1027.000122,373.738281 
	C1026.654175,375.807861 1026.403687,377.898834 1025.945312,379.943207 
	C1024.255615,387.479370 1023.006287,395.166412 1020.617432,402.478516 
	C1018.366028,409.370026 1014.747253,415.803009 1011.978760,422.539948 
	C1006.895386,434.910065 998.970398,445.467377 990.096069,455.141602 
	C977.693481,468.662170 963.397766,479.695038 946.356689,487.364838 
	C930.725159,494.400208 914.722229,499.239716 896.874939,501.072754 
	C887.647339,501.113220 878.419800,501.153687 868.319458,500.994385 
	C866.243347,500.650696 864.179504,500.160187 862.089233,499.986786 
	C846.923706,498.728912 832.936523,493.077362 819.226074,487.291595 
	C809.237732,483.076508 799.957153,476.911194 790.927124,470.781403 
	C783.228821,465.555542 775.929138,459.569580 769.187561,453.148743 
	C759.676575,444.090210 750.848816,434.314911 741.717590,424.856995 
	C735.063354,417.964722 728.371765,411.108398 721.731567,404.202667 
	C714.552002,396.736053 707.392639,389.249786 700.266663,381.732056 
	C697.738586,379.065033 695.447021,377.762512 692.736145,381.625183 
	C690.945312,384.176819 688.793274,386.490509 686.678467,388.796631 
	C675.609497,400.867065 664.495789,412.896454 653.407593,424.949402 
	C647.578979,431.285156 641.770874,437.639862 635.720154,444.240509 
	C641.461060,449.974670 647.127197,455.623138 652.780762,461.284271 
	C658.222290,466.733154 663.517334,472.337128 669.123962,477.610077 
	C674.373169,482.546906 680.048218,487.028473 685.355408,491.906677 
	C695.597839,501.321045 705.571777,511.031403 715.926270,520.318787 
	C724.067505,527.620911 732.534119,534.568604 740.997559,541.501160 
	C755.368408,553.272583 771.532532,562.222595 788.420471,569.628479 
	C805.703491,577.207397 823.502869,583.647522 842.288208,586.611511 
	C850.808960,587.955933 859.410156,588.790833 868.906921,590.017639 
	C877.935913,589.960632 886.964966,589.903625 896.911804,589.979065 
	C903.428955,589.400024 910.023560,589.262878 916.445068,588.137939 
	C925.982178,586.467224 935.426880,584.225220 944.857117,581.998535 
	C963.988281,577.481079 982.034729,570.033630 998.670532,559.712402 
	C1009.931519,552.725891 1020.705444,544.784119 1030.923950,536.334473 
	C1041.435181,527.642822 1051.755981,518.478821 1060.776733,508.295929 
	C1069.484009,498.466949 1076.905273,487.380554 1083.999268,476.276642 
	C1090.178345,466.605072 1095.777222,456.431213 1100.401001,445.936798 
	C1104.599487,436.407776 1108.092407,426.344849 1110.197754,416.166016 
	C1113.839478,398.557373 1116.677856,380.737518 1118.795288,362.880829 
	C1119.642456,355.735931 1117.275024,348.268646 1117.098877,340.930634 
	C1116.791382,328.119080 1115.906982,315.433228 1112.059448,303.130829 
	C1108.800537,292.710907 1105.822632,282.174683 1101.946655,271.984222 
	C1098.127808,261.944397 1094.148193,251.802475 1088.773193,242.557739 
	C1081.512817,230.070450 1073.475586,217.911804 1064.605835,206.520020 
	C1056.688721,196.351715 1047.797485,186.737045 1038.209229,178.133911 
	C1029.122925,169.981110 1018.817078,163.091095 1008.596130,156.327957 
	C999.206665,150.115036 989.450256,144.347290 979.408630,139.266754 
	C972.461914,135.752136 964.796387,133.619705 957.381042,131.077026 
	C934.964905,123.390762 911.783020,119.421974 888.217102,118.108162 
	C877.711365,117.522461 867.043518,118.012253 856.571411,119.144012 
	C844.828796,120.413078 833.117004,122.480476 821.584656,125.062119 
	C803.568115,129.095322 786.060120,135.004242 769.795654,143.793808 
	C757.564819,150.403534 745.596924,157.648926 734.190186,165.585938 
	C725.524170,171.615875 717.924988,179.178925 709.149597,186.077667 
	C708.104065,187.015869 707.058533,187.954056 705.497498,189.006485 
	C705.321350,189.292984 705.145142,189.579483 704.306152,189.974640 
	C703.502197,190.621246 702.698242,191.267853 701.963196,191.954788 
	C701.963196,191.954788 701.940674,191.878235 701.409485,192.021912 
	C701.232117,192.328522 701.054688,192.635117 700.947449,192.948135 
	C700.947449,192.948135 700.940247,192.878098 700.407776,193.023071 
	C700.232605,193.331558 700.057434,193.640045 699.966187,193.958282 
	C699.966187,193.958282 699.973999,193.874100 699.436401,194.039642 
	C699.249268,194.351715 699.062134,194.663773 698.959534,194.966293 
	C698.959534,194.966293 698.947998,194.881973 698.412537,195.020706 
	C698.234436,195.328751 698.056335,195.636810 697.948975,195.949234 
	C697.948975,195.949234 697.944458,195.878571 697.409546,196.022232 
	C697.233337,196.331848 697.057068,196.641464 696.969666,196.963806 
	C696.969666,196.963806 696.980652,196.874817 696.438721,197.038773 
	C696.250732,197.352936 696.062683,197.667099 695.964783,197.966904 
	C695.964783,197.966904 695.948669,197.876999 695.414246,198.019333 
	C695.234985,198.326996 695.055664,198.634644 694.946838,198.947510 
	C694.946838,198.947510 694.940735,198.877136 694.409485,199.021835 
	C694.231812,199.328552 694.054138,199.635269 693.946777,199.947433 
	C693.946777,199.947433 693.940735,199.877167 693.409424,200.021820 
	C693.231812,200.328568 693.054199,200.635300 692.946777,200.947983 
	C692.946777,200.947983 692.939575,200.877945 692.403992,201.025787 
	C692.237244,201.339706 692.070435,201.653641 691.997009,201.984344 
	C691.997009,201.984344 692.013184,201.890945 691.477722,202.077499 
	C691.282288,202.389969 691.086914,202.702454 690.985596,202.998077 
	C690.985596,202.998077 690.968262,202.904068 690.421936,203.017807 
	C690.240967,203.327682 690.060059,203.637558 689.950195,203.950455 
	C689.950195,203.950455 689.946960,203.879379 689.408630,204.023254 
	C689.238220,204.336945 689.067810,204.650650 688.985657,204.974487 
	C688.985657,204.974487 688.994690,204.886108 688.460205,205.062515 
	C688.268677,205.373398 688.077209,205.684280 687.973755,205.985550 
	C687.973755,205.985550 687.963013,205.897583 687.419495,206.018509 
	C687.239258,206.327911 687.059021,206.637329 686.950134,206.949738 
	C686.950134,206.949738 686.947571,206.878418 686.412048,207.020782 
	C686.234070,207.329895 686.056030,207.639008 685.949524,207.950027 
	C685.949524,207.950027 685.947083,207.878479 685.412354,208.020477 
	C685.233826,208.328766 685.055237,208.637070 684.947876,208.948425 
	C684.947876,208.948425 684.944214,208.877274 684.410828,209.021225 
	C684.232849,209.329224 684.054810,209.637222 683.947937,209.948410 
	C683.947937,209.948410 683.944275,209.877304 683.410828,210.021240 
	C683.232910,210.329269 683.054932,210.637299 682.948364,210.948257 
	C682.948364,210.948257 682.945862,210.876831 682.408081,211.023163 
	C682.227844,211.334290 682.047607,211.645416 681.982239,212.001038 
	C681.982239,212.001038 682.026428,211.886063 681.472351,212.059937 
	C681.281982,212.383026 681.091553,212.706116 681.009644,213.000854 
	C681.009644,213.000854 680.981689,212.892212 680.443542,213.045456 
z"/>
<path fill="#7EA6DF" opacity="1.000000" stroke="none" 
	d="
M867.974854,589.856873 
	C859.410156,588.790833 850.808960,587.955933 842.288208,586.611511 
	C823.502869,583.647522 805.703491,577.207397 788.420471,569.628479 
	C771.532532,562.222595 755.368408,553.272583 740.997559,541.501160 
	C732.534119,534.568604 724.067505,527.620911 715.926270,520.318787 
	C705.571777,511.031403 695.597839,501.321045 685.355408,491.906677 
	C680.048218,487.028473 674.373169,482.546906 669.123962,477.610077 
	C663.517334,472.337128 658.222290,466.733154 652.780762,461.284271 
	C647.127197,455.623138 641.461060,449.974670 635.720154,444.240509 
	C641.770874,437.639862 647.578979,431.285156 653.407593,424.949402 
	C664.495789,412.896454 675.609497,400.867065 686.678467,388.796631 
	C688.793274,386.490509 690.945312,384.176819 692.736145,381.625183 
	C695.447021,377.762512 697.738586,379.065033 700.266663,381.732056 
	C707.392639,389.249786 714.552002,396.736053 721.731567,404.202667 
	C728.371765,411.108398 735.063354,417.964722 741.717590,424.856995 
	C750.848816,434.314911 759.676575,444.090210 769.187561,453.148743 
	C775.929138,459.569580 783.228821,465.555542 790.927124,470.781403 
	C799.957153,476.911194 809.237732,483.076508 819.226074,487.291595 
	C832.936523,493.077362 846.923706,498.728912 862.089233,499.986786 
	C864.179504,500.160187 866.243347,500.650696 869.122314,501.231995 
	C879.204895,501.370361 888.484741,501.271149 897.764526,501.171967 
	C914.722229,499.239716 930.725159,494.400208 946.356689,487.364838 
	C963.397766,479.695038 977.693481,468.662170 990.096069,455.141602 
	C998.970398,445.467377 1006.895386,434.910065 1011.978760,422.539948 
	C1014.747253,415.803009 1018.366028,409.370026 1020.617432,402.478516 
	C1023.006287,395.166412 1024.255615,387.479370 1025.945312,379.943207 
	C1026.403687,377.898834 1026.654175,375.807861 1027.403931,373.121460 
	C1030.730469,357.577362 1029.536377,342.800385 1026.186523,328.102112 
	C1024.784302,323.489258 1023.790710,318.700562 1021.896973,314.299194 
	C1017.619080,304.356476 1012.842224,294.629700 1008.367920,284.769958 
	C1002.008545,270.756348 991.914307,259.511444 980.643188,249.562622 
	C972.081238,242.005096 962.247131,235.841019 952.728149,229.429489 
	C943.962952,223.525589 934.216614,219.489990 924.071533,216.637711 
	C916.306274,214.454544 908.420471,212.607224 900.490845,211.136002 
	C895.668640,210.241302 890.666382,210.199814 885.736145,210.025955 
	C868.071228,209.403061 850.720459,211.743942 834.135315,217.695221 
	C822.532898,221.858505 810.961365,226.620972 800.262878,232.681320 
	C779.118958,244.658676 761.637756,261.399017 744.873657,278.779724 
	C727.628906,296.658691 710.656372,314.801117 693.628723,332.888550 
	C679.094543,348.327423 664.698181,363.896210 650.155457,379.327026 
	C632.130005,398.453064 614.058594,417.536194 595.925171,436.559906 
	C585.132507,447.882446 574.176270,459.049072 563.305298,470.297180 
	C554.530884,479.376007 545.949341,488.649902 536.956055,497.506012 
	C529.286438,505.058655 521.118530,512.103271 513.234619,519.440918 
	C506.769196,525.458374 500.645691,531.867798 493.932251,537.589111 
	C479.861145,549.580811 465.850708,561.691589 451.162567,572.897949 
	C436.211121,584.305237 420.700714,595.024353 405.020538,605.419495 
	C389.240723,615.880798 372.897797,625.489136 356.903870,635.632446 
	C347.100922,641.849487 337.490173,648.369568 327.182526,654.938843 
	C326.386902,655.447449 326.201904,655.770752 326.016907,656.094055 
	C326.016907,656.094055 326.021332,656.021240 325.720703,656.043701 
	C321.477386,656.604126 323.182129,653.705872 323.182709,652.138062 
	C323.187988,638.235535 323.309357,624.333008 323.323151,610.430420 
	C323.323608,609.969543 322.544312,609.507874 322.128479,609.046570 
	C322.070801,604.226013 321.731201,599.387146 322.041229,594.590393 
	C322.307159,590.476074 320.648315,589.478333 316.806549,588.885315 
	C306.423187,587.282410 295.972168,585.646362 285.860718,582.880249 
	C274.876373,579.875488 263.693756,576.680298 253.580841,571.607910 
	C236.002167,562.790833 218.364182,553.788818 203.642426,540.235962 
	C197.078079,534.192871 189.613541,529.071106 183.418564,522.694702 
	C169.442963,508.309753 156.468033,493.044189 146.721161,475.336304 
	C144.773376,471.797607 142.894684,468.220856 140.827179,463.997131 
	C139.842728,462.253357 139.015228,461.174133 138.187744,460.094879 
	C138.119995,459.937988 138.052246,459.781067 137.952927,459.006714 
	C136.976410,456.833984 136.031464,455.278687 135.086517,453.723419 
	C135.086517,453.723419 134.935684,453.553711 135.039963,453.050476 
	C134.133774,450.614594 133.123306,448.681976 132.112854,446.749329 
	C132.112854,446.749329 131.957001,446.564087 132.056244,446.039307 
	C131.066711,443.004791 129.977936,440.495056 128.889175,437.985352 
	C128.889175,437.985352 129.000854,438.047485 129.019104,437.755554 
	C128.659897,436.629333 128.282440,435.795044 127.904984,434.960724 
	C127.904984,434.960724 127.996986,434.876617 127.807571,434.978638 
	C127.375969,434.852783 127.240990,434.573334 127.213226,434.242310 
	C126.134499,430.833038 125.055771,427.423798 124.036316,423.195038 
	C121.810150,411.404388 119.554306,400.426880 117.216553,389.466888 
	C116.693314,387.013763 115.883049,384.621887 115.204918,382.201813 
	C115.135002,379.805542 115.065079,377.409302 115.043716,374.094055 
	C115.009483,364.101898 114.926674,355.028717 114.900070,345.537231 
	C116.571175,333.425140 117.947334,321.691681 119.884308,310.051575 
	C121.190536,302.201874 123.288139,294.483887 125.031731,286.706970 
	C125.031731,286.706970 124.957253,286.372253 125.320969,286.008209 
	C126.438690,283.049194 127.192688,280.454193 127.946686,277.859222 
	C127.946686,277.859222 128.011642,277.966125 128.225372,277.770935 
	C130.619125,271.997498 132.799149,266.419250 134.979156,260.840973 
	C136.974106,256.214417 138.489120,251.300095 141.057281,247.017258 
	C147.772491,235.818405 154.820953,224.811859 162.004181,213.904907 
	C164.789612,209.675537 168.094452,205.737381 171.515564,201.988617 
	C177.877747,195.017059 184.281723,188.057648 191.057129,181.494568 
	C205.347443,167.652100 221.382080,156.076492 238.888535,146.656860 
	C248.451385,141.511414 258.042145,136.118576 268.206238,132.469101 
	C279.696106,128.343597 291.840546,126.038582 303.704712,122.958702 
	C321.859711,118.245728 340.429962,117.360092 358.991272,118.149452 
	C370.666809,118.645973 382.412201,120.232147 393.863281,122.600815 
	C408.982056,125.728142 423.894501,129.915863 438.785095,134.046341 
	C443.509979,135.356979 448.003479,137.707825 452.387878,139.994797 
	C460.345795,144.145782 468.332153,148.299362 475.956116,153.018204 
	C484.526672,158.322922 492.986145,163.892105 500.988678,170.007385 
	C510.347656,177.159164 519.490540,184.670303 528.115295,192.684021 
	C536.120667,200.122269 543.288696,208.458115 550.885254,216.341080 
	C556.599243,222.270462 562.427246,228.089722 568.169250,233.992325 
	C575.117126,241.134659 582.025574,248.315323 588.957764,255.472931 
	C589.697144,256.236328 590.426086,257.025909 591.254395,257.684326 
	C594.405762,260.189301 595.093994,262.434082 591.842224,265.780304 
	C577.758240,280.273071 563.855164,294.943115 549.995850,309.651886 
	C545.158813,314.785431 540.645935,320.223969 535.967712,325.507812 
	C533.119141,328.725067 530.815796,326.318054 528.963501,324.438385 
	C520.612732,315.964020 512.298401,307.445618 504.224365,298.708832 
	C495.592194,289.368073 487.610046,279.401611 478.661102,270.386230 
	C470.931396,262.599121 462.795959,254.975845 453.846191,248.696320 
	C441.304169,239.896317 428.221069,231.685928 414.666046,224.561539 
	C400.706726,217.224640 385.564911,212.822205 369.570831,211.979370 
	C362.062836,211.583755 354.553558,209.884079 347.094025,210.150818 
	C326.339630,210.892929 306.401215,215.314957 287.275604,223.893204 
	C270.952789,231.214340 256.689575,241.285233 244.109787,253.686249 
	C231.015182,266.594757 220.877335,281.782837 213.802048,298.778412 
	C208.371216,311.823761 204.682388,325.417480 203.247513,340.192871 
	C202.725906,351.144928 202.777679,361.543579 202.829468,371.942200 
	C202.893677,372.114777 202.957870,372.287323 203.063110,373.157379 
	C204.339325,380.521790 205.574478,387.188721 206.809616,393.855621 
	C208.848969,399.116760 211.238022,404.272522 212.860611,409.659210 
	C217.319168,424.460754 225.546432,437.290924 235.003021,449.037811 
	C243.280334,459.319794 252.845779,468.578979 264.111328,476.116364 
	C276.021637,484.085083 288.368225,490.825134 301.892853,495.364136 
	C320.316315,501.547211 339.460632,503.630920 358.607361,501.728882 
	C377.066223,499.895233 394.936127,494.759521 410.840118,484.533325 
	C422.653839,476.937164 434.378510,469.198944 446.028442,461.354126 
	C448.911926,459.412476 451.450043,456.914368 453.977081,454.494690 
	C463.699829,445.184906 473.551147,435.997101 482.979218,426.395294 
	C493.011383,416.178253 502.748840,405.662018 512.370605,395.054779 
	C520.415039,386.186523 528.011902,376.913635 535.991699,367.985077 
	C540.530334,362.906921 545.549927,358.261414 550.158752,353.242706 
	C559.174500,343.425110 568.002502,333.435242 577.007690,323.607788 
	C583.408752,316.622162 589.954346,309.768463 596.467896,302.886566 
	C607.869812,290.839905 619.313416,278.832672 630.703735,266.774994 
	C634.591980,262.658966 638.422119,258.485413 642.191650,254.260315 
	C649.959961,245.553070 657.569275,236.701462 665.454590,228.102325 
	C668.443970,224.842316 672.013550,222.114334 675.873413,218.839096 
	C676.594727,217.981430 676.761292,217.428543 676.927856,216.875656 
	C676.927856,216.875656 676.946716,216.943436 677.224854,216.952866 
	C677.657471,216.609314 677.811951,216.256332 677.966431,215.903351 
	C677.966431,215.903366 677.981873,215.995026 678.175537,215.876953 
	C678.584229,215.475647 678.799194,215.192383 679.014221,214.909149 
	C679.014221,214.909149 679.007568,215.006073 679.221802,214.914795 
	C679.622009,214.515747 679.807983,214.207993 679.993958,213.900223 
	C679.993958,213.900223 679.989746,213.986649 680.232300,213.934479 
	C680.643799,213.552261 680.812744,213.222229 680.981689,212.892212 
	C680.981689,212.892212 681.009644,213.000854 681.170288,212.852570 
	C681.562744,212.431549 681.794556,212.158798 682.026428,211.886047 
	C682.026428,211.886063 681.982239,212.001038 682.239990,211.971283 
	C682.647095,211.586609 682.796448,211.231720 682.945862,210.876831 
	C682.945862,210.876831 682.948364,210.948257 683.228271,210.950638 
	C683.653564,210.594452 683.798889,210.235870 683.944275,209.877289 
	C683.944275,209.877304 683.947937,209.948410 684.228149,209.950745 
	C684.653625,209.594498 684.798950,209.235886 684.944214,208.877289 
	C684.944214,208.877274 684.947876,208.948425 685.226685,208.950302 
	C685.652649,208.594269 685.799866,208.236374 685.947083,207.878479 
	C685.947083,207.878479 685.949524,207.950027 686.226868,207.948090 
	C686.651978,207.590256 686.799744,207.234329 686.947571,206.878418 
	C686.947571,206.878418 686.950134,206.949738 687.226074,206.951553 
	C687.655701,206.601440 687.809387,206.249512 687.963013,205.897583 
	C687.963013,205.897583 687.973755,205.985550 688.189575,205.891876 
	C688.601807,205.494171 688.798218,205.190125 688.994629,204.886108 
	C688.994690,204.886108 688.985657,204.974487 689.252197,204.959824 
	C689.661438,204.589905 689.804260,204.234650 689.947021,203.879395 
	C689.946960,203.879379 689.950195,203.950455 690.224609,203.951263 
	C690.655457,203.602753 690.811890,203.253403 690.968262,202.904068 
	C690.968262,202.904068 690.985596,202.998077 691.173096,202.870544 
	C691.578125,202.459000 691.795654,202.174973 692.013184,201.890945 
	C692.013184,201.890945 691.997009,201.984344 692.264038,201.967224 
	C692.667297,201.592728 692.803406,201.235336 692.939575,200.877945 
	C692.939575,200.877945 692.946777,200.947983 693.230469,200.955322 
	C693.656311,200.600845 693.798523,200.238998 693.940735,199.877167 
	C693.940735,199.877167 693.946777,199.947433 694.230408,199.955048 
	C694.656250,199.600830 694.798523,199.238998 694.940796,198.877136 
	C694.940735,198.877136 694.946838,198.947510 695.228638,198.954285 
	C695.656494,198.599716 695.802551,198.238358 695.948669,197.876999 
	C695.948669,197.876999 695.964783,197.966904 696.194580,197.897308 
	C696.609863,197.510086 696.795227,197.192444 696.980591,196.874817 
	C696.980652,196.874817 696.969666,196.963806 697.240967,196.959305 
	C697.656311,196.596069 697.800415,196.237320 697.944458,195.878571 
	C697.944458,195.878571 697.948975,195.949234 698.230713,195.953461 
	C698.657654,195.599106 698.802856,195.240555 698.947998,194.881989 
	C698.947998,194.881973 698.959534,194.966293 699.198730,194.905609 
	C699.616638,194.521317 699.795288,194.197708 699.973999,193.874100 
	C699.973999,193.874100 699.966187,193.958282 700.243042,193.961517 
	C700.659973,193.602524 700.800110,193.240295 700.940186,192.878082 
	C700.940247,192.878098 700.947449,192.948135 701.231567,192.956635 
	C701.657349,192.602844 701.799011,192.240540 701.940674,191.878235 
	C701.940674,191.878235 701.963196,191.954788 702.271362,192.043610 
	C703.375977,191.376953 704.172485,190.621475 704.968933,189.865997 
	C705.145142,189.579483 705.321350,189.292984 706.041138,188.846558 
	C707.673584,187.811035 708.762390,186.935440 709.851196,186.059845 
	C717.924988,179.178925 725.524170,171.615875 734.190186,165.585938 
	C745.596924,157.648926 757.564819,150.403534 769.795654,143.793808 
	C786.060120,135.004242 803.568115,129.095322 821.584656,125.062119 
	C833.117004,122.480476 844.828796,120.413078 856.571411,119.144012 
	C867.043518,118.012253 877.711365,117.522461 888.217102,118.108162 
	C911.783020,119.421974 934.964905,123.390762 957.381042,131.077026 
	C964.796387,133.619705 972.461914,135.752136 979.408630,139.266754 
	C989.450256,144.347290 999.206665,150.115036 1008.596130,156.327957 
	C1018.817078,163.091095 1029.122925,169.981110 1038.209229,178.133911 
	C1047.797485,186.737045 1056.688721,196.351715 1064.605835,206.520020 
	C1073.475586,217.911804 1081.512817,230.070450 1088.773193,242.557739 
	C1094.148193,251.802475 1098.127808,261.944397 1101.946655,271.984222 
	C1105.822632,282.174683 1108.800537,292.710907 1112.059448,303.130829 
	C1115.906982,315.433228 1116.791382,328.119080 1117.098877,340.930634 
	C1117.275024,348.268646 1119.642456,355.735931 1118.795288,362.880829 
	C1116.677856,380.737518 1113.839478,398.557373 1110.197754,416.166016 
	C1108.092407,426.344849 1104.599487,436.407776 1100.401001,445.936798 
	C1095.777222,456.431213 1090.178345,466.605072 1083.999268,476.276642 
	C1076.905273,487.380554 1069.484009,498.466949 1060.776733,508.295929 
	C1051.755981,518.478821 1041.435181,527.642822 1030.923950,536.334473 
	C1020.705444,544.784119 1009.931519,552.725891 998.670532,559.712402 
	C982.034729,570.033630 963.988281,577.481079 944.857117,581.998535 
	C935.426880,584.225220 925.982178,586.467224 916.445068,588.137939 
	C910.023560,589.262878 903.428955,589.400024 896.101318,589.695129 
	C886.185547,589.559753 877.080200,589.708313 867.974854,589.856873 
z"/>
<path fill="#D1DFF1" opacity="1.000000" stroke="none" 
	d="
M124.683914,286.905548 
	C123.288139,294.483887 121.190536,302.201874 119.884308,310.051575 
	C117.947334,321.691681 116.571175,333.425140 114.735909,345.543610 
	C114.515533,345.968353 114.185936,345.986053 114.185936,345.986053 
	C113.437851,336.496033 114.587387,327.235291 116.899315,317.999084 
	C118.945023,309.826355 120.241791,301.468506 122.029526,293.227203 
	C122.486931,291.118591 123.550835,289.141602 124.683914,286.905548 
z"/>
<path fill="#DAE9F4" opacity="1.000000" stroke="none" 
	d="
M322.066650,609.508789 
	C322.544312,609.507874 323.323608,609.969543 323.323151,610.430420 
	C323.309357,624.333008 323.187988,638.235535 323.182709,652.138062 
	C323.182129,653.705872 321.477386,656.604126 325.757019,656.046509 
	C324.916687,656.655762 323.739380,657.284729 322.562073,657.913696 
	C322.026398,656.125427 321.004181,654.327881 321.037933,652.550415 
	C321.197144,644.166565 321.731842,635.790649 321.961121,627.407166 
	C322.119965,621.599060 322.000092,615.783325 322.066650,609.508789 
z"/>
<path fill="#C9D9EF" opacity="1.000000" stroke="none" 
	d="
M1026.127197,328.542908 
	C1029.536377,342.800385 1030.730469,357.577362 1027.498779,372.691467 
	C1026.816040,358.246735 1026.442017,343.615234 1026.127197,328.542908 
z"/>
<path fill="#CDDBF1" opacity="1.000000" stroke="none" 
	d="
M115.011826,382.494507 
	C115.883049,384.621887 116.693314,387.013763 117.216553,389.466888 
	C119.554306,400.426880 121.810150,411.404388 124.054695,422.804321 
	C122.842041,420.193909 121.220184,417.246124 120.580940,414.098755 
	C118.469009,403.700439 116.711975,393.229980 115.011826,382.494507 
z"/>
<path fill="#B7CCEA" opacity="1.000000" stroke="none" 
	d="
M202.888977,371.481049 
	C202.777679,361.543579 202.725906,351.144928 202.882034,340.395020 
	C203.042801,350.369141 202.995667,360.694519 202.888977,371.481049 
z"/>
<path fill="#D1DFF1" opacity="1.000000" stroke="none" 
	d="
M134.586182,260.895142 
	C132.799149,266.419250 130.619125,271.997498 128.171967,277.803497 
	C130.000931,272.337250 132.097061,266.643250 134.586182,260.895142 
z"/>
<path fill="#C4D8F1" opacity="1.000000" stroke="none" 
	d="
M206.870773,393.434265 
	C205.574478,387.188721 204.339325,380.521790 203.139938,373.422638 
	C204.064209,376.138062 205.186401,379.242554 205.778107,382.445068 
	C206.420151,385.920105 206.568359,389.486420 206.870773,393.434265 
z"/>
<path fill="#DFEAFA" opacity="1.000000" stroke="none" 
	d="
M897.319702,501.122375 
	C888.484741,501.271149 879.204895,501.370361 869.558655,501.331848 
	C878.419800,501.153687 887.647339,501.113220 897.319702,501.122375 
z"/>
<path fill="#A2BDE4" opacity="1.000000" stroke="none" 
	d="
M868.440918,589.937256 
	C877.080200,589.708313 886.185547,589.559753 895.642456,589.628906 
	C886.964966,589.903625 877.935913,589.960632 868.440918,589.937256 
z"/>
<path fill="#C2D3EA" opacity="1.000000" stroke="none" 
	d="
M114.106728,346.449768 
	C114.185936,345.986053 114.515533,345.968353 114.679703,345.961975 
	C114.926674,355.028717 115.009483,364.101898 115.026321,373.647461 
	C114.642227,372.136536 114.079590,370.156830 114.050003,368.169220 
	C113.944550,361.085419 114.020340,353.998932 114.106728,346.449768 
z"/>
<path fill="#D1DFF1" opacity="1.000000" stroke="none" 
	d="
M127.609230,278.026855 
	C127.192688,280.454193 126.438690,283.049194 125.399864,285.855988 
	C125.833954,283.443359 126.552864,280.818909 127.609230,278.026855 
z"/>
<path fill="#D3DEF2" opacity="1.000000" stroke="none" 
	d="
M128.944275,438.385254 
	C129.977936,440.495056 131.066711,443.004791 132.103394,445.927795 
	C131.033997,443.822479 130.016678,441.303802 128.944275,438.385254 
z"/>
<path fill="#D3DEF2" opacity="1.000000" stroke="none" 
	d="
M132.047852,447.141754 
	C133.123306,448.681976 134.133774,450.614594 135.087189,452.947266 
	C134.014374,451.409576 132.998611,449.471863 132.047852,447.141754 
z"/>
<path fill="#D3DEF2" opacity="1.000000" stroke="none" 
	d="
M135.022079,454.104889 
	C136.031464,455.278687 136.976410,456.833984 137.938232,458.750793 
	C136.955948,457.570312 135.956787,456.028320 135.022079,454.104889 
z"/>
<path fill="#D8E4F1" opacity="1.000000" stroke="none" 
	d="
M709.500366,186.068756 
	C708.762390,186.935440 707.673584,187.811035 706.298889,188.789429 
	C707.058533,187.954056 708.104065,187.015869 709.500366,186.068756 
z"/>
<path fill="#D3DEF2" opacity="1.000000" stroke="none" 
	d="
M138.244202,460.401672 
	C139.015228,461.174133 139.842728,462.253357 140.750977,463.626587 
	C139.988052,462.849884 139.144379,461.779175 138.244202,460.401672 
z"/>
<path fill="#D8E4F1" opacity="1.000000" stroke="none" 
	d="
M704.637573,189.920319 
	C704.172485,190.621475 703.375977,191.376953 702.236938,192.023438 
	C702.698242,191.267853 703.502197,190.621246 704.637573,189.920319 
z"/>
<path fill="#D3DEF2" opacity="1.000000" stroke="none" 
	d="
M127.966560,435.323914 
	C128.282440,435.795044 128.659897,436.629333 128.987823,437.811310 
	C128.634903,437.335022 128.331528,436.511047 127.966560,435.323914 
z"/>
<path fill="#D8E4F1" opacity="1.000000" stroke="none" 
	d="
M676.634399,216.996338 
	C676.761292,217.428543 676.594727,217.981430 676.192810,218.729492 
	C676.085266,218.322098 676.213074,217.719543 676.634399,216.996338 
z"/>
<path fill="#D3DEF2" opacity="1.000000" stroke="none" 
	d="
M127.244034,434.463348 
	C127.240990,434.573334 127.375969,434.852783 127.851318,435.023010 
	C127.758926,435.031921 127.489052,434.938263 127.244034,434.463348 
z"/>
<path fill="#DAE9F4" opacity="1.000000" stroke="none" 
	d="
M326.299500,656.032959 
	C326.201904,655.770752 326.386902,655.447449 326.866028,655.066040 
	C326.967468,655.329285 326.774780,655.650513 326.299500,656.032959 
z"/>
<path fill="#D8E4F1" opacity="1.000000" stroke="none" 
	d="
M679.726379,213.982422 
	C679.807983,214.207993 679.622009,214.515747 679.173340,214.911667 
	C679.093384,214.688080 679.276062,214.376343 679.726379,213.982422 
z"/>
<path fill="#D8E4F1" opacity="1.000000" stroke="none" 
	d="
M677.693542,215.960938 
	C677.811951,216.256332 677.657471,216.609314 677.189819,216.954803 
	C677.057861,216.637726 677.239258,216.328125 677.693542,215.960938 
z"/>
<path fill="#D8E4F1" opacity="1.000000" stroke="none" 
	d="
M678.745483,214.994324 
	C678.799194,215.192383 678.584229,215.475647 678.129700,215.884354 
	C678.085693,215.699707 678.281250,215.389603 678.745483,214.994324 
z"/>
<path fill="#D8E4F1" opacity="1.000000" stroke="none" 
	d="
M690.695068,202.960938 
	C690.811890,203.253403 690.655457,203.602753 690.189087,203.949768 
	C690.060059,203.637558 690.240967,203.327682 690.695068,202.960938 
z"/>
<path fill="#D8E4F1" opacity="1.000000" stroke="none" 
	d="
M700.673950,192.950577 
	C700.800110,193.240295 700.659973,193.602524 700.201050,193.956635 
	C700.057434,193.640045 700.232605,193.331558 700.673950,192.950577 
z"/>
<path fill="#D8E4F1" opacity="1.000000" stroke="none" 
	d="
M699.705200,193.956879 
	C699.795288,194.197708 699.616638,194.521317 699.156433,194.910370 
	C699.062134,194.663773 699.249268,194.351715 699.705200,193.956879 
z"/>
<path fill="#D8E4F1" opacity="1.000000" stroke="none" 
	d="
M698.680298,194.951355 
	C698.802856,195.240555 698.657654,195.599106 698.195312,195.951263 
	C698.056335,195.636810 698.234436,195.328751 698.680298,194.951355 
z"/>
<path fill="#D8E4F1" opacity="1.000000" stroke="none" 
	d="
M697.677002,195.950409 
	C697.800415,196.237320 697.656311,196.596069 697.196533,196.952942 
	C697.057068,196.641464 697.233337,196.331848 697.677002,195.950409 
z"/>
<path fill="#D8E4F1" opacity="1.000000" stroke="none" 
	d="
M696.709656,196.956787 
	C696.795227,197.192444 696.609863,197.510086 696.149536,197.904495 
	C696.062683,197.667099 696.250732,197.352936 696.709656,196.956787 
z"/>
<path fill="#D8E4F1" opacity="1.000000" stroke="none" 
	d="
M695.681458,197.948166 
	C695.802551,198.238358 695.656494,198.599716 695.193359,198.951691 
	C695.055664,198.634644 695.234985,198.326996 695.681458,197.948166 
z"/>
<path fill="#D8E4F1" opacity="1.000000" stroke="none" 
	d="
M694.675171,198.949493 
	C694.798523,199.238998 694.656250,199.600830 694.195251,199.952332 
	C694.054138,199.635269 694.231812,199.328552 694.675171,198.949493 
z"/>
<path fill="#D8E4F1" opacity="1.000000" stroke="none" 
	d="
M693.675049,199.949493 
	C693.798523,200.238998 693.656311,200.600845 693.195312,200.952362 
	C693.054199,200.635300 693.231812,200.328568 693.675049,199.949493 
z"/>
<path fill="#D8E4F1" opacity="1.000000" stroke="none" 
	d="
M692.671753,200.951874 
	C692.803406,201.235336 692.667297,201.592728 692.217407,201.958832 
	C692.070435,201.653641 692.237244,201.339706 692.671753,200.951874 
z"/>
<path fill="#D8E4F1" opacity="1.000000" stroke="none" 
	d="
M691.745483,201.984222 
	C691.795654,202.174973 691.578125,202.459000 691.126038,202.878967 
	C691.086914,202.702454 691.282288,202.389969 691.745483,201.984222 
z"/>
<path fill="#D8E4F1" opacity="1.000000" stroke="none" 
	d="
M701.675049,191.950073 
	C701.799011,192.240540 701.657349,192.602844 701.196533,192.953430 
	C701.054688,192.635117 701.232117,192.328522 701.675049,191.950073 
z"/>
<path fill="#D8E4F1" opacity="1.000000" stroke="none" 
	d="
M689.677856,203.951324 
	C689.804260,204.234650 689.661438,204.589905 689.208069,204.954758 
	C689.067810,204.650650 689.238220,204.336945 689.677856,203.951324 
z"/>
<path fill="#D8E4F1" opacity="1.000000" stroke="none" 
	d="
M688.727417,204.974304 
	C688.798218,205.190125 688.601807,205.494171 688.145508,205.896683 
	C688.077209,205.684280 688.268677,205.373398 688.727417,204.974304 
z"/>
<path fill="#D8E4F1" opacity="1.000000" stroke="none" 
	d="
M687.691284,205.958038 
	C687.809387,206.249512 687.655701,206.601440 687.190430,206.950058 
	C687.059021,206.637329 687.239258,206.327911 687.691284,205.958038 
z"/>
<path fill="#D8E4F1" opacity="1.000000" stroke="none" 
	d="
M686.679810,206.949585 
	C686.799744,207.234329 686.651978,207.590256 686.191101,207.947144 
	C686.056030,207.639008 686.234070,207.329895 686.679810,206.949585 
z"/>
<path fill="#D8E4F1" opacity="1.000000" stroke="none" 
	d="
M685.679688,207.949478 
	C685.799866,208.236374 685.652649,208.594269 685.191040,208.948776 
	C685.055237,208.637070 685.233826,208.328766 685.679688,207.949478 
z"/>
<path fill="#D8E4F1" opacity="1.000000" stroke="none" 
	d="
M684.677551,208.949249 
	C684.798950,209.235886 684.653625,209.594498 684.192566,209.949158 
	C684.054810,209.637222 684.232849,209.329224 684.677551,208.949249 
z"/>
<path fill="#D8E4F1" opacity="1.000000" stroke="none" 
	d="
M683.677551,209.949265 
	C683.798889,210.235870 683.653564,210.594452 683.192627,210.949173 
	C683.054932,210.637299 683.232910,210.329269 683.677551,209.949265 
z"/>
<path fill="#D8E4F1" opacity="1.000000" stroke="none" 
	d="
M682.677002,210.949997 
	C682.796448,211.231720 682.647095,211.586609 682.182495,211.949020 
	C682.047607,211.645416 682.227844,211.334290 682.677002,210.949997 
z"/>
<path fill="#D8E4F1" opacity="1.000000" stroke="none" 
	d="
M681.749390,211.972992 
	C681.794556,212.158798 681.562744,212.431549 681.116028,212.866760 
	C681.091553,212.706116 681.281982,212.383026 681.749390,211.972992 
z"/>
<path fill="#D8E4F1" opacity="1.000000" stroke="none" 
	d="
M680.712585,212.968826 
	C680.812744,213.222229 680.643799,213.552261 680.189087,213.932068 
	C680.083435,213.669724 680.263489,213.357590 680.712585,212.968826 
z"/>
</svg>